<svg xmlns="http://www.w3.org/2000/svg" viewBox="0 0 473.14 115.2"><defs><style>.cls-1{fill:#005c97;}.cls-2{fill:#59ad40;}</style></defs><title>Asset 1</title><g id="Layer_2" data-name="Layer 2"><g id="Layer_2-2" data-name="Layer 2"><path class="cls-1" d="M151.92,59.2H141.63V69h10.29V80.21a27.77,27.77,0,0,1-11.06,2,28.77,28.77,0,0,1-5.11-.44c-11.13-2-17.51-10.71-17.51-23.18,0-14.07,8.45-23.92,24.43-23.92A40,40,0,0,1,161,39.09V27.84a56.37,56.37,0,0,0-19.2-3.32c-22,0-36.39,14.78-36.39,34.88,0,17.74,11.21,31.09,30.37,32.79,1.37.12,2.77.19,4.21.19a56.42,56.42,0,0,0,24.13-5.33V59.2Z"/><path class="cls-1" d="M171.64,67.64c0-14.27,7.83-25,21.41-25,13.37,0,21.11,9.65,21.11,25.43v2.81H183.7c.2,7.34,5.43,12.07,13.37,12.07a23.86,23.86,0,0,0,12.06-3.22L212.75,88A31.79,31.79,0,0,1,196,92.38C178.57,92.38,171.64,80.51,171.64,67.64ZM202,62.51c-.21-5.42-2.82-10.75-9.16-10.75-5.92,0-9.24,5-9.24,10.75Z"/><path class="cls-1" d="M219.58,67.44c0-14.27,9.55-24.82,23.73-24.82s23.82,10.55,23.82,24.82-9.65,24.93-23.82,24.93S219.58,81.72,219.58,67.44Zm35.19,0c0-8.74-3.92-15.17-11.46-15.17s-11.46,6.43-11.46,15.17,3.93,15.29,11.46,15.29S254.77,76.29,254.77,67.44Z"/><path class="cls-1" d="M274.36,43.82H284.5l1.31,5.33c4.32-4.32,8.25-6.53,13.07-6.53a12.44,12.44,0,0,1,6.74,1.91l-4.23,10.15A10.1,10.1,0,0,0,296,53.07c-3.12,0-5.73,1.31-9.65,4.72V91.37h-12V43.82Z"/><path class="cls-1" d="M303.45,101.22c0-5.23,3.62-9.35,8.55-11.46a6.71,6.71,0,0,1-3.12-5.93c0-2.81,1.81-6.23,5.74-9-5-2.91-7.95-8.44-7.95-14.77,0-8.75,6.44-17.49,19.4-17.49a19.53,19.53,0,0,1,9.45,2.11,1.1,1.1,0,0,0,1.21-.2c2.51-2.52,5.63-4.13,11.46-4.13a27,27,0,0,1,3.21.21L349,49.25a14.19,14.19,0,0,0-3.52-.51,7.57,7.57,0,0,0-3.52.81,16.32,16.32,0,0,1,4.23,11.26c0,10.65-8.15,17.6-19.71,17.6a20,20,0,0,1-5.83-.81,6.65,6.65,0,0,0-1.2,3.52c0,8.54,31.26.6,31.26,18.39,0,8.65-8.64,15.69-25.13,15.69C311.6,115.19,303.45,109.46,303.45,101.22Zm35.79-.4c0-6.84-14.77-5.43-21.21-7.94-1.51,1.1-3.82,3.11-3.82,6.23,0,4.72,5,7.64,13,7.64C334.41,106.75,339.24,104.33,339.24,100.82Zm-4.42-40.21c0-4.72-3.22-9-8.55-9-4.72,0-8.24,3.12-8.24,8.84,0,4.73,3,8.85,8.34,8.85C331.2,69.35,334.82,66.34,334.82,60.61Z"/><path class="cls-1" d="M357.08,30.19a7.39,7.39,0,0,1,14.78,0,7.24,7.24,0,0,1-7.44,7.13A7.08,7.08,0,0,1,357.08,30.19Zm1.31,13.63h12.06V91.37H358.39Z"/><path class="cls-1" d="M409.15,86.85a19.63,19.63,0,0,1-13.68,5.53c-9,0-15.78-6-15.78-15.18,0-6.44,3.11-10.46,8-13,3.31-1.71,7.44-2.5,12.27-2.71l8.14-.3V59.7c0-5.53-3.62-7.94-9.15-7.94a26.94,26.94,0,0,0-12.47,3.32l-3.91-7.74A37.32,37.32,0,0,1,401,42.62c12.77,0,19.1,5.83,19.1,17.28V79.2c0,5.53.2,9.66.9,12.17H411ZM401.7,69.46a15,15,0,0,0-6.93,1.5,5.76,5.76,0,0,0-2.92,5.43c0,4.12,2.71,6.54,7,6.54a14.79,14.79,0,0,0,9.25-3.52V69.25Z"/><path class="cls-1" d="M430.12,43.82h10.25l1.21,5.33c5-3.92,10.35-6.53,16.28-6.53,7.54,0,15.28,3.71,15.28,17.28V91.37H461.08V63.62c0-5.83-1.21-10.55-7.34-10.55-3.92,0-8.15,2.11-11.66,5V91.37h-12V43.82Z"/><path class="cls-2" d="M62.28,0A30.1,30.1,0,0,0,41,8.84a31.08,31.08,0,0,0-3.81,4.67,30,30,0,0,1,16.65-5H84V38.65a30,30,0,0,1-5,16.64A30.13,30.13,0,0,0,92.44,30.16V0Z"/><path class="cls-1" d="M46.12,16.16A30.09,30.09,0,0,0,24.8,25a30.82,30.82,0,0,0-3.74,4.54,30,30,0,0,1,16.78-5.1H68V54.6a30,30,0,0,1-5.11,16.78A30.16,30.16,0,0,0,76.28,46.32V16.16Z"/><path class="cls-2" d="M60.32,32.12V62.28A30.16,30.16,0,0,1,30.16,92.45H0V62.28A30.17,30.17,0,0,1,30.17,32.12ZM20.44,83.62c1.92-1,2.5-2.22,2.5-5.22V69.5H14.05c-3.47,0-5.24.7-6.32,2.49l-.19.32H20.13V83.78Zm12.64,2.59c2.27-1.28,2.86-2.34,3-5.4V56.39H12.19c-3.88,0-5,1.27-6.09,2.93l-.21.33H32.77V86.39Zm13.13-8.06c2.29-1.54,2.89-2.27,3-5.42V43.21H19.6c-3.77,0-5.41,1.72-6.31,3l-.24.34H45.88V78.37Z"/></g></g></svg>